<svg xmlns="http://www.w3.org/2000/svg" viewBox="0 0 200 260" width="200" height="260">
  <defs>
    <linearGradient id="skin" x1="0%" y1="0%" x2="100%" y2="100%">
      <stop offset="0%" style="stop-color:#e8b896"/><stop offset="100%" style="stop-color:#c6865a"/>
    </linearGradient>
    <linearGradient id="saree" x1="0%" y1="0%" x2="0%" y2="100%">
      <stop offset="0%" style="stop-color:#7c3aed"/><stop offset="100%" style="stop-color:#5b21b6"/>
    </linearGradient>
  </defs>
  <rect width="200" height="260" fill="#fdf6ec"/>
  <ellipse cx="100" cy="248" rx="72" ry="28" fill="url(#saree)" opacity="0.35"/>
  <path d="M40 220 Q100 175 160 220 L160 260 L40 260 Z" fill="url(#saree)"/>
  <ellipse cx="100" cy="118" rx="52" ry="62" fill="url(#skin)"/>
  <path d="M52 95 Q100 45 148 95 Q140 70 100 58 Q60 70 52 95" fill="#1a0f0a"/>
  <circle cx="100" cy="68" r="14" fill="#1a0f0a"/>
  <ellipse cx="82" cy="112" rx="8" ry="10" fill="#fff"/>
  <ellipse cx="118" cy="112" rx="8" ry="10" fill="#fff"/>
  <circle cx="84" cy="112" r="4" fill="#3d2914"/>
  <circle cx="120" cy="112" r="4" fill="#3d2914"/>
  <circle cx="100" cy="98" r="3" fill="#c0392b"/>
  <path d="M80 140 Q100 132 120 140" fill="none" stroke="#5a3820" stroke-width="3" stroke-linecap="round"/>
  <ellipse cx="58" cy="128" rx="16" ry="18" fill="url(#skin)" stroke="#5a3820" stroke-width="1.5"/>
  <path d="M52 118 L48 108 M56 115 L50 105" stroke="#5a3820" stroke-width="2" stroke-linecap="round"/>
</svg>
